<svg width="280" height="216" viewBox="0 0 280 216" fill="none" xmlns="http://www.w3.org/2000/svg">
<g opacity="0.45">
<ellipse cx="137.816" cy="130.777" rx="127.443" ry="130.777" fill="#FBE6C2"/>
<path d="M54.6415 203.754V231.557L33.5518 239.802V214.396L54.6415 203.754Z" fill="#0C2026"/>
<path d="M252.981 62.5377C252.885 61.579 252.214 60.6203 251.255 60.3327C249.913 60.0451 248.859 60.7162 248.379 61.9625C246.558 67.1395 244.737 72.4123 245.024 77.9728V78.0687C244.737 79.8902 244.545 81.7117 244.449 83.5333C244.353 84.7796 245.599 85.8342 246.75 85.8342C248.092 85.8342 248.954 84.7796 249.05 83.5333C249.626 76.8224 250.968 70.3032 252.885 63.8799C253.172 63.4005 253.172 62.9212 252.981 62.5377Z" fill="#6D6E70"/>
<path d="M254.419 63.2088C254.61 60.8121 254.706 58.4153 254.515 56.0186C254.419 54.4846 253.268 53.1425 251.639 53.1425C250.105 53.1425 248.571 54.4846 248.763 56.0186C248.955 58.9905 248.763 61.8666 248.475 64.7427C248.188 65.1262 247.9 65.5097 247.708 65.9891C245.12 72.4124 243.203 79.0274 241.957 85.8342C241.669 87.3681 242.436 88.9979 243.97 89.4772C245.408 89.8607 247.229 88.9979 247.612 87.464C247.708 86.7929 247.9 86.1218 248.092 85.4507C249.338 85.3548 250.488 84.5879 250.776 83.3415C251.063 81.7118 251.447 80.082 251.83 78.4522C251.926 78.2604 252.118 77.9728 252.118 77.6852C252.31 76.8224 252.501 75.9595 252.693 75.0967C253.46 72.1247 254.419 69.1528 255.473 66.2767C255.665 65.1262 255.186 63.9758 254.419 63.2088Z" fill="#A6A8AB"/>
<path d="M254.515 52.2796H243.203V81.6159H254.515V52.2796Z" fill="url(#paint0_linear)"/>
<path d="M250.488 51.8003L238.697 90.1483L222.017 95.3253L230.453 70.2074L224.03 68.6734L228.728 62.0584L250.488 51.8003Z" fill="#E33F5A"/>
<path d="M230.453 70.2073L222.017 95.3253L202.941 101.365L201.599 102.228H201.503L181.563 114.116L143.506 107.884L153.571 78.548L120.02 47.7737L224.03 68.6734L230.453 70.2073Z" fill="#1E4069"/>
<path d="M181.563 114.116L166.321 123.128L109.954 115.362L119.157 113.349L143.506 107.884L181.563 114.116Z" fill="#142447"/>
<path d="M250.488 51.8003L228.728 62.0584L213.39 23.7103L250.488 51.8003Z" fill="#0C2026"/>
<path d="M153.571 78.548L134.495 91.3946L120.02 47.7737L153.571 78.548Z" fill="#0C2026"/>
<path d="M153.571 78.5481L143.506 107.884L119.157 113.349L134.495 91.3947L153.571 78.5481Z" fill="#E33F5A"/>
<path d="M213.39 23.7103L250.488 51.8003L238.697 90.1483L405.402 120.731C400.992 115.362 398.212 102.036 398.02 101.461L505.482 121.114L516.506 127.729C516.506 127.729 516.506 137.988 509.317 139.809L531.173 143.836L539.993 100.406L213.39 23.7103Z" fill="#1E4069"/>
<path d="M531.269 143.836L528.873 155.819L377.793 131.756C377.793 131.756 204.954 103.954 201.598 102.228L202.941 101.461L222.017 95.4212L238.697 90.1483L405.402 120.731C406.265 121.785 407.223 122.552 408.182 122.84C408.374 122.84 408.565 122.936 408.757 122.936C434.065 127.921 502.031 140.959 508.55 140.001C508.837 140.001 509.125 139.905 509.413 139.809L531.269 143.836Z" fill="#142447"/>
<path d="M120.02 121.018L65.7616 160.134V171.254V186.402L128.551 153.518V121.018H120.02ZM92.9865 170.104L73.2389 180.458V159.175L92.9865 148.821V170.104ZM123.087 154.573L99.3134 166.844V144.698L123.087 130.701V154.573Z" fill="#E33F5A"/>
<path d="M543.444 205.576L152.517 156.586L141.014 155.148L128.456 153.614C128.456 153.614 187.986 129.167 188.465 129.072C189.328 130.989 213.39 150.355 213.39 150.355L538.363 190.237L543.444 205.576Z" fill="#142447"/>
<path d="M213.39 107.309V150.259C213.39 150.259 189.328 130.989 188.465 128.976L207.925 106.35L213.39 107.309Z" fill="#E33F5A"/>
<path d="M527.722 157.641L486.406 151.218L213.39 107.309V150.259L538.363 190.141L527.722 157.641ZM251.926 150.259L222.209 145.849V118.813L251.926 123.224V150.259ZM283.273 154.285C283.273 154.285 255.281 150.93 254.514 150.163C253.748 149.492 254.514 123.128 254.514 123.128L283.273 127.154V154.285ZM318.934 158.6L293.339 155.723C293.339 155.723 292.476 130.03 292.668 128.976L318.838 133.482V158.6H318.934ZM346.926 162.339C346.926 162.339 322.481 159.75 321.714 159.367C320.947 158.983 320.947 134.44 320.947 134.44L346.83 137.316V162.339H346.926ZM378.656 166.173C378.656 166.173 356.224 163.681 356.129 163.393C356.033 163.105 356.416 141.055 356.129 139.713V138.563L378.656 141.726V166.173ZM403.964 169.529L380.573 166.94V142.11L403.964 145.849V169.529ZM433.394 173.555L412.304 170.967V146.903L433.394 151.313V173.555ZM453.621 176.431L435.311 174.131C435.311 174.131 435.694 151.985 435.694 151.505L453.621 154.094V176.431Z" fill="#1E4069"/>
<path d="M251.926 123.128V150.259L222.209 145.849V118.814L251.926 123.128Z" fill="#0C2026"/>
<path d="M283.273 127.25V154.285C283.273 154.285 255.281 150.93 254.514 150.163C253.748 149.492 254.514 123.128 254.514 123.128L283.273 127.25Z" fill="#0C2026"/>
<path d="M128.456 121.018V153.518C128.456 153.518 187.986 129.072 188.465 128.976C188.465 128.784 128.456 121.018 128.456 121.018ZM135.741 129.455L175.907 131.852L135.741 146.999V129.455Z" fill="#1E4069"/>
<path d="M139.767 162.243L112.063 176.048V180.937L109.954 181.992V177.007L81.483 190.524V195.701L77.7444 197.523V192.25L56.4629 202.412V207.781L54.6415 208.74V203.754L33.5518 214.396V218.902L27.8001 221.586H0L65.6657 186.402L128.456 153.519L139.767 162.243Z" fill="#142447"/>
<path d="M141.014 167.036V221.203L27.5125 261.181L27.8001 221.586L33.5518 218.902V239.802L54.6415 231.557V208.74L56.4629 207.781V230.598L77.7443 222.928V197.523L81.483 195.701V221.778L109.954 211.424V181.992L112.063 180.937V210.274L139.767 200.303V167.611L141.014 167.036Z" fill="#E33F5A"/>
<path d="M152.517 156.586V220.436L144.752 219.861L141.013 221.203V155.148L152.517 156.586Z" fill="#1E4069"/>
<path d="M152.517 156.586V220.436L535.199 246.225L543.444 205.672L152.517 156.586ZM188.465 200.495C188.465 200.495 154.53 197.715 153.955 197.331C153.38 196.948 153.955 159.367 153.955 159.367L188.465 164.639V200.495ZM192.492 200.495L191.533 164.256L224.03 168.762L225.372 203.85L192.492 200.495ZM265.443 207.493L233.904 204.905V169.912L265.443 173.843V207.493ZM296.982 210.274L267.648 207.493C267.648 207.493 267.935 174.418 267.648 173.843L296.982 177.582V210.274ZM332.642 213.341L305.801 211.041V178.541L332.642 181.704V213.341ZM361.209 215.546L335.902 214.013V182.088L361.209 185.635V215.546ZM393.515 218.135L369.453 215.546L368.495 186.402L393.515 189.374V218.135ZM419.877 220.628L395.816 218.231V189.662L419.877 192.825V220.628Z" fill="#1E4069"/>
<path d="M176.003 131.852L135.741 146.999V129.455L176.003 131.852Z" fill="#0C2026"/>
<path d="M123.087 130.701V154.573L99.3134 166.844V144.698L123.087 130.701Z" fill="#0C2026"/>
<path d="M92.9865 148.821V170.104L73.143 180.554V159.271L92.9865 148.821Z" fill="#0C2026"/>
<path d="M77.7444 192.25V222.928L56.4629 230.598V202.412L77.7444 192.25Z" fill="#0C2026"/>
<path d="M109.954 177.007V211.424L81.483 221.778V190.524L109.954 177.007Z" fill="#0C2026"/>
<path d="M141.014 155.148V163.297L139.767 162.243L128.456 153.519L141.014 155.148Z" fill="#1E4069"/>
<path d="M141.014 163.297V167.036L139.767 167.611V200.303L112.063 210.274V176.048L139.767 162.243L141.014 163.297Z" fill="#0C2026"/>
<path d="M188.465 164.639V200.495C188.465 200.495 154.53 197.715 153.955 197.331C153.38 196.948 153.955 159.367 153.955 159.367L188.465 164.639Z" fill="#0C2026"/>
<path d="M225.372 203.85L192.492 200.495L191.533 164.256L224.126 168.762L225.372 203.85Z" fill="#0C2026"/>
<path d="M265.443 173.843V207.493L233.808 204.809V169.912L265.443 173.843Z" fill="#0C2026"/>
<path d="M296.982 177.582V210.274L267.648 207.493C267.648 207.493 267.935 174.418 267.648 173.843L296.982 177.582Z" fill="#0C2026"/>
<path d="M528.777 155.724L527.626 157.641L486.31 151.218L213.39 107.309L207.925 106.446L188.465 129.072C188.465 128.88 128.456 121.114 128.456 121.114H120.02L65.7616 160.229V171.35L34.9897 167.324L110.05 115.458L166.417 123.224L181.659 114.116L201.694 102.228C205.145 103.954 377.889 131.756 377.889 131.756L528.777 155.724Z" fill="#0C2026"/>
</g>
<defs>
<linearGradient id="paint0_linear" x1="246.072" y1="66.9973" x2="251.922" y2="66.9973" gradientUnits="userSpaceOnUse">
<stop stop-color="#2B388F"/>
<stop offset="0.0810056" stop-color="#2B388F"/>
<stop offset="0.8715" stop-color="#25A9E0"/>
<stop offset="1" stop-color="#25A9E0"/>
</linearGradient>
</defs>
</svg>
